<?xml version="1.0" encoding="UTF-8" standalone="no"?>
<!DOCTYPE svg PUBLIC "-//W3C//DTD SVG 1.1//EN" "http://www.w3.org/Graphics/SVG/1.1/DTD/svg11.dtd">
<svg xmlns="http://www.w3.org/2000/svg" version="1.1" viewBox="0.00 0.00 761.00 380.00">
<path fill="#C5C7D6" d="
  M 389.62 80.49
  C 387.38 85.76 379.48 83.94 378.75 78.48
  Q 378.45 76.20 378.35 73.83
  Q 377.83 60.92 377.97 43.83
  Q 378.06 32.49 379.05 23.56
  Q 379.48 19.69 383.37 19.87
  L 385.34 19.96
  Q 388.83 20.11 389.00 23.60
  Q 390.41 51.29 389.93 79.02
  Q 389.92 79.79 389.62 80.49
  Z"
/>
<path fill="#C5C7D6" d="
  M 428.54 48.54
  Q 433.31 38.35 437.95 30.64
  C 438.92 29.02 442.02 25.19 444.39 26.20
  Q 448.38 27.90 449.83 32.03
  A 1.28 1.28 0.0 0 1 449.78 32.99
  C 449.24 34.16 449.03 35.47 448.54 36.54
  Q 443.53 47.37 438.40 58.13
  Q 436.70 61.71 432.20 62.25
  C 428.08 62.75 424.75 57.90 426.17 54.14
  Q 427.22 51.35 428.54 48.54
  Z"
/>
<path fill="#C5C7D6" d="
  M 328.59 28.94
  C 334.21 39.02 339.42 50.98 342.94 61.24
  Q 345.37 68.30 338.00 69.49
  Q 334.02 70.14 331.96 65.98
  Q 324.01 49.92 319.33 36.88
  Q 316.58 29.22 323.74 26.64
  C 325.68 25.94 327.70 27.34 328.59 28.94
  Z"
/>
<path fill="#C5C7D6" d="
  M 436.29 94.57
  C 435.17 91.73 439.69 86.36 441.47 84.45
  C 448.60 76.77 455.51 68.98 462.44 61.44
  Q 467.73 55.69 472.73 60.85
  C 476.16 64.40 473.26 68.20 470.74 71.03
  Q 465.20 77.25 459.86 83.28
  C 456.06 87.59 452.77 92.51 448.83 96.66
  Q 446.90 98.69 444.40 99.70
  C 441.17 101.01 437.35 97.24 436.29 94.57
  Z"
/>
<path fill="#C5C7D6" d="
  M 326.33 98.93
  C 324.92 101.88 320.79 105.34 317.38 103.21
  Q 315.06 101.77 313.20 99.73
  Q 302.01 87.50 291.49 74.63
  Q 289.36 72.03 287.42 68.93
  Q 283.91 63.29 289.38 59.65
  C 293.10 57.17 298.83 63.23 301.16 65.78
  C 310.00 75.47 318.75 85.37 326.39 95.96
  C 327.10 96.94 326.80 97.95 326.33 98.93
  Z"
/>
<path fill="#C5C7D6" d="
  M 101.94 225.96
  Q 104.39 226.27 107.10 225.75
  Q 122.25 222.80 137.52 215.97
  C 139.68 215.01 143.68 213.69 145.97 214.10
  Q 154.81 215.68 157.11 223.55
  C 159.63 232.18 155.97 238.69 148.11 242.93
  Q 141.26 246.62 134.51 249.01
  Q 120.28 254.05 109.66 255.94
  Q 101.75 257.35 94.35 259.04
  Q 92.91 259.37 91.59 260.17
  Q 91.14 260.44 90.96 260.93
  Q 89.66 264.52 88.94 267.02
  Q 76.82 309.43 67.14 344.76
  C 65.17 351.94 62.17 356.81 54.80 358.46
  C 45.50 360.55 37.37 354.45 35.33 345.42
  C 34.76 342.91 35.60 340.90 36.13 338.54
  Q 39.09 325.46 43.36 310.50
  Q 52.43 278.64 61.28 247.77
  A 1.57 1.57 0.0 0 0 60.86 246.22
  C 56.78 242.30 52.80 238.01 51.37 232.45
  C 49.88 226.66 53.80 221.28 58.43 217.80
  C 61.98 215.13 65.49 216.70 69.35 216.90
  A 1.03 1.03 0.0 0 0 70.39 216.16
  Q 77.48 191.15 84.25 169.30
  C 85.68 164.69 87.29 159.77 89.62 155.46
  Q 91.51 151.97 96.24 150.22
  Q 108.46 145.68 120.83 141.37
  Q 152.41 130.38 184.48 118.96
  Q 192.54 116.10 201.24 111.97
  C 204.17 110.57 209.58 105.67 207.24 102.06
  Q 203.74 96.68 197.05 96.18
  Q 191.31 95.76 186.17 96.13
  Q 168.70 97.40 148.97 102.60
  C 129.79 107.66 111.81 112.58 94.35 119.55
  Q 77.15 126.41 63.28 137.46
  Q 54.47 144.48 50.93 154.11
  C 47.61 163.16 46.10 171.93 34.07 172.36
  C 28.30 172.57 23.29 168.33 20.70 163.48
  C 16.41 155.44 18.79 144.81 22.89 136.82
  C 30.79 121.44 44.62 109.37 59.86 101.06
  Q 84.46 87.67 116.58 78.65
  Q 144.18 70.91 170.12 66.29
  Q 179.01 64.71 187.08 64.65
  Q 197.71 64.57 204.56 65.11
  Q 217.96 66.15 229.27 74.72
  Q 238.23 81.50 241.52 91.92
  Q 243.85 99.28 242.79 106.47
  Q 241.74 113.62 237.19 120.28
  C 230.64 129.89 222.04 135.73 211.59 140.64
  Q 200.25 145.97 189.49 149.94
  Q 164.92 158.99 134.84 169.13
  Q 123.44 172.98 116.52 176.13
  Q 115.01 176.82 114.22 178.98
  Q 112.15 184.63 110.57 190.14
  Q 105.80 206.82 100.90 224.38
  Q 100.51 225.77 101.94 225.96
  Z"
/>
<ellipse fill="#C5C7D6" cx="0.00" cy="0.00" transform="translate(593.81,98.88) rotate(106.6)" rx="18.71" ry="18.47"/>
<circle fill="#C5C7D6" cx="648.62" cy="98.66" r="18.53"/>
<path fill="#C5C7D6" d="
  M 434.25 271.83
  Q 432.74 271.77 431.93 273.11
  Q 423.14 287.81 408.58 304.42
  Q 404.72 308.83 399.79 312.40
  Q 386.61 321.94 372.93 326.61
  Q 370.46 327.45 367.84 327.85
  Q 359.89 329.05 352.07 328.70
  Q 343.30 328.30 336.98 325.77
  Q 317.41 317.92 306.89 299.52
  Q 305.86 297.72 304.36 296.50
  A 2.34 2.33 42.7 0 0 301.29 296.62
  Q 298.12 299.61 295.14 303.63
  Q 287.16 314.39 280.46 322.20
  Q 261.89 343.82 233.77 347.91
  C 226.55 348.96 217.16 348.64 209.99 346.92
  Q 178.54 339.39 165.49 309.75
  Q 163.02 304.14 161.87 298.32
  Q 160.85 293.19 160.84 286.94
  Q 160.82 277.88 161.06 269.07
  Q 161.16 265.44 162.38 260.82
  C 164.74 251.85 167.97 242.99 172.53 235.02
  C 183.47 215.92 201.12 198.87 221.53 189.60
  Q 231.75 184.95 238.05 184.27
  Q 245.60 183.46 252.46 183.07
  Q 255.23 182.91 261.40 183.58
  Q 266.18 184.10 270.10 185.48
  C 287.98 191.77 299.00 206.96 305.12 224.64
  A 0.57 0.56 -31.9 0 0 306.05 224.85
  Q 308.35 222.59 310.16 219.93
  C 322.02 202.44 335.71 187.89 354.37 177.75
  Q 366.86 170.97 379.00 169.02
  Q 384.10 168.20 390.30 168.49
  C 410.31 169.44 426.60 180.74 434.40 198.90
  C 436.09 202.85 437.02 207.10 438.69 211.06
  A 1.44 1.44 0.0 0 0 440.62 211.79
  C 449.85 207.49 454.36 200.61 457.85 191.55
  Q 460.96 183.48 462.91 177.29
  Q 470.14 154.35 478.44 127.42
  Q 480.54 120.61 483.28 113.38
  Q 486.44 105.04 490.29 100.13
  Q 498.20 90.03 508.89 86.22
  C 515.76 83.77 524.65 84.03 531.58 86.36
  C 546.90 91.52 554.90 104.93 556.59 120.93
  Q 557.12 125.97 556.59 130.91
  Q 555.25 143.51 553.02 153.01
  Q 547.28 177.44 541.01 201.75
  Q 535.39 223.56 529.31 246.25
  Q 529.16 246.81 529.22 247.38
  A 0.75 0.75 0.0 0 0 530.45 247.87
  C 536.27 242.98 540.01 237.27 542.57 230.03
  Q 544.50 224.58 545.49 221.49
  Q 550.38 206.30 555.21 190.26
  Q 556.63 185.55 559.43 179.15
  C 561.64 174.09 565.84 171.09 571.26 170.75
  C 575.40 170.50 578.82 170.75 582.22 173.24
  Q 589.56 178.61 587.61 188.01
  Q 586.79 191.97 585.83 195.12
  Q 576.55 225.58 567.09 255.97
  Q 565.57 260.86 564.03 266.73
  Q 563.90 267.21 563.90 268.75
  Q 563.90 274.41 567.53 275.88
  C 572.10 277.72 577.79 274.39 581.46 271.81
  Q 589.95 265.84 599.93 257.44
  C 604.25 253.80 608.17 250.38 608.90 244.50
  Q 609.76 237.61 611.04 232.92
  Q 617.02 211.06 630.92 193.70
  Q 639.84 182.55 653.63 173.31
  Q 665.78 165.16 678.59 162.32
  Q 681.39 161.69 685.83 161.26
  Q 689.22 160.93 693.07 161.37
  Q 703.51 162.57 712.52 166.20
  C 718.83 168.75 724.26 174.69 728.00 180.33
  C 732.71 187.44 733.65 195.67 732.97 204.05
  Q 732.41 210.96 728.93 217.54
  Q 723.70 227.44 715.47 235.32
  Q 695.33 254.60 668.49 264.46
  Q 659.87 267.62 651.24 270.24
  A 1.23 1.22 72.1 0 0 650.44 271.81
  Q 652.76 278.57 658.74 281.80
  Q 663.38 284.31 670.34 284.12
  Q 677.81 283.91 684.48 280.64
  Q 690.35 277.76 695.62 273.70
  Q 704.65 266.75 714.00 257.70
  Q 717.48 254.33 721.28 251.29
  Q 724.43 248.77 728.05 249.13
  Q 740.90 250.38 742.62 263.55
  Q 743.18 267.82 741.76 270.78
  Q 739.79 274.88 736.54 278.71
  Q 729.70 286.78 720.30 295.40
  Q 712.02 302.99 704.15 307.35
  Q 689.51 315.45 673.50 316.87
  Q 663.95 317.72 654.32 315.60
  C 636.69 311.73 625.65 301.35 616.59 286.18
  A 0.50 0.50 0.0 0 0 615.83 286.06
  C 601.51 298.52 586.26 310.64 568.56 317.21
  C 560.21 320.31 551.86 320.28 543.24 318.96
  Q 533.57 317.47 526.30 311.39
  Q 519.37 305.59 515.45 302.28
  C 514.37 301.37 512.54 299.73 511.10 300.00
  Q 509.75 300.26 508.70 301.15
  Q 504.27 304.87 499.70 308.48
  Q 490.08 316.07 479.21 318.58
  C 461.01 322.79 443.72 312.43 437.55 295.37
  Q 435.89 290.78 435.03 285.10
  Q 434.05 278.56 435.01 272.76
  A 0.81 0.80 -84.6 0 0 434.25 271.83
  Z
  M 505.92 140.77
  Q 495.09 177.01 472.90 248.88
  Q 470.41 256.96 468.75 264.92
  C 468.21 267.52 468.50 270.64 469.61 272.99
  Q 472.52 279.15 479.43 277.87
  C 485.77 276.70 489.68 270.90 491.74 264.50
  Q 496.84 248.69 501.46 232.00
  Q 513.20 189.57 523.77 148.01
  Q 525.80 140.02 526.68 131.77
  C 526.96 129.17 526.85 125.22 524.83 123.21
  C 522.91 121.29 520.30 119.18 517.44 120.28
  C 513.82 121.66 511.49 124.56 510.11 128.34
  Q 507.57 135.22 505.92 140.77
  Z
  M 677.61 207.93
  Q 661.59 218.60 653.82 235.94
  A 0.25 0.25 0.0 0 0 654.09 236.29
  Q 659.12 235.53 663.36 233.58
  C 676.82 227.42 690.18 219.91 698.47 208.04
  C 700.83 204.66 702.60 199.96 701.22 195.81
  Q 699.08 189.37 693.34 187.94
  C 689.14 186.90 684.65 186.52 680.57 188.19
  A 0.47 0.47 0.0 0 0 680.57 189.06
  C 684.30 190.66 687.45 191.23 689.30 195.34
  C 692.60 202.66 681.73 205.18 677.61 207.93
  Z
  M 385.88 214.50
  C 388.89 222.05 394.40 226.96 402.04 228.91
  C 404.79 229.61 406.23 227.63 406.06 225.07
  C 405.91 222.86 406.20 220.58 405.83 218.41
  Q 404.52 210.59 398.45 205.05
  C 396.19 202.99 393.65 202.52 390.61 203.09
  C 384.79 204.18 384.00 209.79 385.88 214.50
  Z
  M 262.93 219.28
  C 257.26 216.51 251.13 220.51 252.20 226.89
  Q 254.22 238.89 263.47 245.23
  C 266.64 247.41 270.15 248.45 274.09 247.90
  A 0.89 0.89 0.0 0 0 274.85 247.11
  Q 275.59 240.28 273.92 234.43
  C 272.27 228.61 268.44 221.96 262.93 219.28
  Z
  M 349.99 293.86
  Q 352.73 295.02 356.07 295.09
  Q 365.96 295.30 372.54 292.14
  Q 378.97 289.06 385.22 282.40
  Q 394.50 272.52 399.92 262.79
  A 1.67 1.66 25.6 0 0 399.09 260.44
  Q 396.82 259.50 394.17 259.01
  C 375.90 255.61 360.66 242.02 355.21 223.99
  Q 354.94 223.08 354.99 222.15
  A 1.17 1.17 0.0 0 0 353.34 221.03
  C 351.25 221.97 350.13 223.39 348.51 224.86
  Q 339.72 232.83 336.15 244.03
  C 330.66 261.33 330.58 285.68 349.99 293.86
  Z
  M 267.61 283.42
  Q 268.47 281.78 268.98 280.14
  Q 269.17 279.52 268.55 279.36
  Q 265.99 278.66 263.35 278.26
  C 243.60 275.19 228.76 260.18 223.34 240.74
  Q 221.80 235.23 220.81 229.48
  A 0.62 0.62 0.0 0 0 219.85 229.07
  Q 202.45 240.86 196.28 260.88
  Q 192.43 273.36 194.24 285.79
  Q 195.03 291.25 197.40 296.47
  Q 204.74 312.65 222.28 314.78
  Q 230.12 315.73 237.65 313.68
  C 251.08 310.02 261.13 295.76 267.61 283.42
  Z"
/>
</svg>
